<svg viewBox="0 0 512 512" xmlns="http://www.w3.org/2000/svg">
  <rect width="512" height="512" rx="96" fill="#FDFBF6" />
  <rect x="16" y="16" width="480" height="480" rx="80" fill="none" stroke="#1A1712" stroke-width="12" />
  <g transform="translate(96 96) scale(8)">
    <path
      d="M14 4C7 4 3 9 4 15c-3 2-3 8 1 10-1 6 5 11 11 9 3 3 9 3 12-1 6 1 10-4 9-9 3-3 2-9-2-11 0-6-6-9-11-7-3-2-8-1-10 3Z"
      fill="#FFFFFF" stroke="#1A1712" stroke-width="2.5" stroke-linejoin="round" />
    <circle cx="22" cy="21" r="7.5" fill="#FFC93C" stroke="#1A1712" stroke-width="2.5" />
  </g>
</svg>
