<svg viewBox="0 0 512 512" xmlns="http://www.w3.org/2000/svg">
  <rect width="512" height="512" fill="#FBF4E6" />
  <g transform="translate(140 140) scale(6.2)">
    <ellipse cx="20" cy="25" rx="14" ry="11" fill="#C0421F" stroke="#26201A" stroke-width="2.5" />
    <g fill="#5A763D" stroke="#26201A" stroke-width="2.5" stroke-linejoin="round">
      <path d="M 0,0 C -1.6666667,-1.8 -1.6666667,-2.5632881 0,-4.3632881 1.6666667,-2.5632881 1.6666667,-1.8 0,0 Z" transform="translate(20,15)" />
      <path d="M 0,0 C -2,-2.4 -1.7535563,-4.6689636 0.24644368,-7.0689636 2.2464437,-4.6689636 2,-2.4 0,0 Z" transform="rotate(62,-2.4820961,24.142795)" />
      <path d="M 0,0 C -2,-2.4 -2.2464437,-4.6689636 -0.24644368,-7.0689636 1.7535563,-4.6689636 2,-2.4 0,0 Z" transform="rotate(-62,22.482096,-9.1427948)" />
      <path d="M 0,0 C -2.3333333,-2.9333333 -3.600758,-5.192765 -1.2674246,-8.1260984 1.0659087,-5.192765 2.3333333,-2.9333333 0,0 Z" transform="rotate(118,5.4935454,13.508606)" />
      <path d="M 0,0 C -2.3333333,-2.9333333 -1.0659087,-5.192765 1.2674246,-8.1260984 3.600758,-5.192765 2.3333333,-2.9333333 0,0 Z" transform="rotate(-118,14.506455,1.4913938)" />
      <path d="M 0,0 C -2.4,-3.1333333 -2.4,-4.8312195 0,-7.9645528 2.4,-4.8312195 2.4,-3.1333333 0,0 Z" transform="rotate(180,10,7.5)" />
    </g>
    <circle cx="20" cy="15" r="2" fill="#5A763D" stroke="#26201A" stroke-width="2.5" />
  </g>
</svg>
