<svg viewBox="0 0 512 512" xmlns="http://www.w3.org/2000/svg">
  <rect width="512" height="512" fill="#FBF4E6" />
  <g transform="translate(140 140) scale(6.2)">
    <ellipse cx="20" cy="25" rx="14" ry="11" fill="#DB512B" stroke="#26201A" stroke-width="2.5" />
    <g fill="#6E8B4E" stroke="#26201A" stroke-width="2.5" stroke-linejoin="round">
      <path d="M0 0 Q-2.5 -2.7 0 -5.4 Q2.5 -2.7 0 0Z" transform="translate(20 15) rotate(0)" />
      <path d="M0 0 Q-3 -3.6 0 -7.2 Q3 -3.6 0 0Z" transform="translate(20 15) rotate(62)" />
      <path d="M0 0 Q-3 -3.6 0 -7.2 Q3 -3.6 0 0Z" transform="translate(20 15) rotate(298)" />
      <path d="M0 0 Q-3.5 -4.4 0 -8.8 Q3.5 -4.4 0 0Z" transform="translate(20 15) rotate(118)" />
      <path d="M0 0 Q-3.5 -4.4 0 -8.8 Q3.5 -4.4 0 0Z" transform="translate(20 15) rotate(242)" />
      <path d="M0 0 Q-3.6 -4.7 0 -9.4 Q3.6 -4.7 0 0Z" transform="translate(20 15) rotate(180)" />
    </g>
    <circle cx="20" cy="15" r="2" fill="#6E8B4E" stroke="#26201A" stroke-width="2.5" />
  </g>
</svg>
