<?xml version="1.0" encoding="UTF-8" standalone="no"?>
<!-- Created with Inkscape (http://www.inkscape.org/) -->

<svg
   width="317.5mm"
   height="166.6875mm"
   viewBox="0 0 317.5 166.6875"
   version="1.1"
   id="svg5"
   xml:space="preserve"
   inkscape:export-filename="bitmap.svg"
   inkscape:export-xdpi="96"
   inkscape:export-ydpi="96"
   xmlns:inkscape="http://www.inkscape.org/namespaces/inkscape"
   xmlns:sodipodi="http://sodipodi.sourceforge.net/DTD/sodipodi-0.dtd"
   xmlns="http://www.w3.org/2000/svg"
   xmlns:svg="http://www.w3.org/2000/svg"><sodipodi:namedview
     id="namedview7"
     pagecolor="#ffffff"
     bordercolor="#000000"
     borderopacity="0.25"
     inkscape:showpageshadow="2"
     inkscape:pageopacity="0.0"
     inkscape:pagecheckerboard="0"
     inkscape:deskcolor="#d1d1d1"
     inkscape:document-units="mm"
     showgrid="false" /><defs
     id="defs2" /><g
     inkscape:label="Layer 1"
     inkscape:groupmode="layer"
     id="layer1"
     transform="translate(49.875317,-43.00152)"><g
       id="g195"
       transform="matrix(0.26458333,0,0,0.26458333,-49.875317,43.00152)"><rect
         width="1200"
         height="630"
         fill="#fbf4e6"
         id="rect132"
         x="0"
         y="0" /><rect
         x="40"
         y="40"
         width="1120"
         height="550"
         rx="28"
         fill="#fbf4e6"
         stroke="#26201a"
         stroke-width="10"
         id="rect134" /><g
         transform="translate(150,118)"
         id="g162"><g
           transform="translate(10,12)"
           id="g140"><g
             transform="scale(6)"
             opacity="1"
             id="g138" /></g><g
           transform="scale(6)"
           id="g160"><ellipse
             cx="20"
             cy="25"
             rx="14"
             ry="11"
             fill="#c0421f"
             stroke="#26201a"
             stroke-width="2.5"
             id="ellipse142" /><g
             fill="#5a763d"
             stroke="#26201a"
             stroke-width="2.5"
             stroke-linejoin="round"
             id="g156"><path
               d="M 0,0 C -1.6666667,-1.8 -1.6666667,-2.5632881 0,-4.3632881 1.6666667,-2.5632881 1.6666667,-1.8 0,0 Z"
               transform="translate(20,15)"
               id="path144"
               sodipodi:nodetypes="ccc" /><path
               d="M 0,0 C -2,-2.4 -1.7535563,-4.6689636 0.24644368,-7.0689636 2.2464437,-4.6689636 2,-2.4 0,0 Z"
               transform="rotate(62,-2.4820961,24.142795)"
               id="path146"
               sodipodi:nodetypes="ccc" /><path
               d="M 0,0 C -2,-2.4 -2.2464437,-4.6689636 -0.24644368,-7.0689636 1.7535563,-4.6689636 2,-2.4 0,0 Z"
               transform="rotate(-62,22.482096,-9.1427948)"
               id="path148"
               sodipodi:nodetypes="ccc" /><path
               d="M 0,0 C -2.3333333,-2.9333333 -3.600758,-5.192765 -1.2674246,-8.1260984 1.0659087,-5.192765 2.3333333,-2.9333333 0,0 Z"
               transform="rotate(118,5.4935454,13.508606)"
               id="path150"
               sodipodi:nodetypes="ccc" /><path
               d="M 0,0 C -2.3333333,-2.9333333 -1.0659087,-5.192765 1.2674246,-8.1260984 3.600758,-5.192765 2.3333333,-2.9333333 0,0 Z"
               transform="rotate(-118,14.506455,1.4913938)"
               id="path152"
               sodipodi:nodetypes="ccc" /><path
               d="M 0,0 C -2.4,-3.1333333 -2.4,-4.8312195 0,-7.9645528 2.4,-4.8312195 2.4,-3.1333333 0,0 Z"
               transform="rotate(180,10,7.5)"
               id="path154"
               sodipodi:nodetypes="ccc" /></g><circle
             cx="20"
             cy="15"
             r="2"
             fill="#5a763d"
             stroke="#26201a"
             stroke-width="2.5"
             id="circle158" /></g></g><text
         x="150"
         y="445"
         font-family="'Arial Black', Arial, sans-serif"
         font-weight="900"
         font-size="112px"
         fill="#26201a"
         letter-spacing="-3"
         id="text164">GoToRecipe</text><text
         x="152"
         y="508"
         font-family="Arial, sans-serif"
         font-weight="600"
         font-size="40px"
         fill="#c0421f"
         id="text166">the recipe, nothing else</text><text
         x="152"
         y="560"
         font-family="Arial, sans-serif"
         font-weight="400"
         font-size="30px"
         fill="#26201a"
         opacity="0.75"
         id="text168">No ads. No life stories. No account.</text></g></g></svg>
